<svg xmlns="http://www.w3.org/2000/svg" viewBox="0 0 64 64" role="img" aria-label="FinTrack">
  <defs>
    <linearGradient id="g" x1="0" y1="0" x2="1" y2="1">
      <stop offset="0%" stop-color="#4f46e5"/>
      <stop offset="100%" stop-color="#06b6d4"/>
    </linearGradient>
  </defs>
  <rect x="4" y="4" width="56" height="56" rx="14" fill="url(#g)"/>
  <path d="M16 23h32a3 3 0 0 1 3 3v18a3 3 0 0 1-3 3H16a3 3 0 0 1-3-3V26a3 3 0 0 1 3-3z" fill="#fff" opacity="0.96"/>
  <rect x="13" y="29" width="38" height="6" rx="2" fill="#dbeafe"/>
  <rect x="21" y="36" width="4" height="8" rx="1" fill="#4f46e5"/>
  <rect x="28" y="33" width="4" height="11" rx="1" fill="#6366f1"/>
  <rect x="35" y="30" width="4" height="14" rx="1" fill="#22c55e"/>
  <path d="M20 41l7-6 6 2 9-8" fill="none" stroke="#0ea5e9" stroke-width="2.5" stroke-linecap="round" stroke-linejoin="round"/>
  <path d="M41 27h7v7" fill="none" stroke="#0ea5e9" stroke-width="2.5" stroke-linecap="round" stroke-linejoin="round"/>
</svg>
